# xmcd
#
# Track frame offsets:
#	150
#	20750
#	39903
#	60155
#	82387
#	100305
#	116948
#	138826
#	152301
#	167602
#	181246
#	204735
#	216577
#	243554
#	258676
#	272880
#
# Disc length: 3895 seconds
#
# Revision: 0
# Processed by: cddbd v1.5.1PL0 Copyright (c) Steve Scherf et al.
# Submitted via: dBpowerAMP V4.0
#
DISCID=ea0f3510
DTITLE=Various Artist - Colorado Blues Society - Compilation 2001
DYEAR=2001
DGENRE=Blues
TTITLE0=Erica Brown Band - Dynamite
TTITLE1=Cup-a-jo - Wait
TTITLE2=Kevin Dooley - Roadmaster
TTITLE3=Phantom Freeway and The Bad Ass Horns
TTITLE4=Johnny O Band - Old Shotgun
TTITLE5=Vicki Taylor - Cold Wind Blues
TTITLE6=A J Salas - Side Walk Sun Day
TTITLE7=Homebrew - Just Don't Wake Up
TTITLE8=Dan Treanor and Randall Dubis - I'm A Fool (for Your Love)
TTITLE9=Ben Stevens - Dr Blues
TTITLE10=Dan Treanor and Darryl Lee - Midnight Man
TTITLE11=Otis Taylor - Bowlegged Charlie
TTITLE12=Lionel Young Band - Wasted Time
TTITLE13=Mary Flower - Your Baby Gave You Nuthin' But the Blues
TTITLE14=Sammy Dee - Workin Overtime
TTITLE15=Mr David Booker - House Wreckin' Time
EXTD=
EXTT0=
EXTT1=
EXTT2=
EXTT3=
EXTT4=
EXTT5=
EXTT6=
EXTT7=
EXTT8=
EXTT9=
EXTT10=
EXTT11=
EXTT12=
EXTT13=
EXTT14=
EXTT15=
PLAYORDER=
